<mxfile host="app.diagrams.net" modified="2024-03-20T03:18:28.166Z" agent="Mozilla/5.0 (Windows NT 10.0; Win64; x64) AppleWebKit/537.36 (KHTML, like Gecko) Chrome/122.0.0.0 Safari/537.36" etag="rqia1-D9nXa7grAXgMvx" version="24.0.7" type="device">
  <diagram name="Page-1" id="f1b7ffb7-ca1e-a977-7cf5-a751b3c06c05">
    <mxGraphModel dx="2868" dy="1476" grid="1" gridSize="10" guides="1" tooltips="1" connect="1" arrows="1" fold="1" page="1" pageScale="1" pageWidth="826" pageHeight="1169" background="none" math="0" shadow="0">
      <root>
        <mxCell id="0" />
        <mxCell id="1" parent="0" />
        <mxCell id="qCPhsPHX_Ze51kBiNaoT-99" style="edgeStyle=orthogonalEdgeStyle;rounded=0;orthogonalLoop=1;jettySize=auto;html=1;exitX=1;exitY=0.5;exitDx=0;exitDy=0;entryX=0;entryY=0.75;entryDx=0;entryDy=0;" edge="1" parent="1" source="qCPhsPHX_Ze51kBiNaoT-100" target="qCPhsPHX_Ze51kBiNaoT-112">
          <mxGeometry relative="1" as="geometry" />
        </mxCell>
        <mxCell id="qCPhsPHX_Ze51kBiNaoT-100" value="" style="rounded=1;whiteSpace=wrap;html=1;arcSize=8;" vertex="1" parent="1">
          <mxGeometry x="23" y="10" width="820" height="1150" as="geometry" />
        </mxCell>
        <mxCell id="qCPhsPHX_Ze51kBiNaoT-101" style="edgeStyle=orthogonalEdgeStyle;rounded=0;orthogonalLoop=1;jettySize=auto;html=1;exitX=1;exitY=0.5;exitDx=0;exitDy=0;" edge="1" parent="1" source="qCPhsPHX_Ze51kBiNaoT-102">
          <mxGeometry relative="1" as="geometry">
            <mxPoint x="1090" y="1090" as="targetPoint" />
            <Array as="points">
              <mxPoint x="1090" y="1130" />
              <mxPoint x="1090" y="1090" />
            </Array>
          </mxGeometry>
        </mxCell>
        <mxCell id="qCPhsPHX_Ze51kBiNaoT-102" value="&lt;font style=&quot;font-size: 24px;&quot;&gt;Log Out&lt;/font&gt;" style="rounded=1;whiteSpace=wrap;html=1;arcSize=33;" vertex="1" parent="1">
          <mxGeometry x="53" y="1050" width="760" height="90" as="geometry" />
        </mxCell>
        <mxCell id="qCPhsPHX_Ze51kBiNaoT-103" style="edgeStyle=orthogonalEdgeStyle;rounded=0;orthogonalLoop=1;jettySize=auto;html=1;exitX=1;exitY=0.5;exitDx=0;exitDy=0;" edge="1" parent="1">
          <mxGeometry relative="1" as="geometry">
            <mxPoint x="1030" y="835" as="targetPoint" />
            <mxPoint x="818" y="835" as="sourcePoint" />
          </mxGeometry>
        </mxCell>
        <mxCell id="qCPhsPHX_Ze51kBiNaoT-105" style="edgeStyle=orthogonalEdgeStyle;rounded=0;orthogonalLoop=1;jettySize=auto;html=1;exitX=1;exitY=0.5;exitDx=0;exitDy=0;entryX=0;entryY=0.5;entryDx=0;entryDy=0;" edge="1" parent="1" source="qCPhsPHX_Ze51kBiNaoT-108" target="qCPhsPHX_Ze51kBiNaoT-111">
          <mxGeometry relative="1" as="geometry" />
        </mxCell>
        <mxCell id="qCPhsPHX_Ze51kBiNaoT-106" style="edgeStyle=orthogonalEdgeStyle;rounded=0;orthogonalLoop=1;jettySize=auto;html=1;exitX=1;exitY=0.5;exitDx=0;exitDy=0;" edge="1" parent="1" source="qCPhsPHX_Ze51kBiNaoT-108" target="qCPhsPHX_Ze51kBiNaoT-114">
          <mxGeometry relative="1" as="geometry" />
        </mxCell>
        <mxCell id="qCPhsPHX_Ze51kBiNaoT-107" style="edgeStyle=orthogonalEdgeStyle;rounded=0;orthogonalLoop=1;jettySize=auto;html=1;exitX=1;exitY=0.75;exitDx=0;exitDy=0;" edge="1" parent="1" source="qCPhsPHX_Ze51kBiNaoT-108">
          <mxGeometry relative="1" as="geometry">
            <mxPoint x="1070" y="517" as="targetPoint" />
          </mxGeometry>
        </mxCell>
        <mxCell id="qCPhsPHX_Ze51kBiNaoT-108" value="User Information" style="rounded=1;whiteSpace=wrap;html=1;fontSize=24;" vertex="1" parent="1">
          <mxGeometry x="48" y="270" width="770" height="246" as="geometry" />
        </mxCell>
        <mxCell id="qCPhsPHX_Ze51kBiNaoT-109" style="edgeStyle=orthogonalEdgeStyle;rounded=0;orthogonalLoop=1;jettySize=auto;html=1;exitX=1;exitY=0.5;exitDx=0;exitDy=0;" edge="1" parent="1" source="qCPhsPHX_Ze51kBiNaoT-110">
          <mxGeometry relative="1" as="geometry">
            <mxPoint x="1050" y="220" as="targetPoint" />
          </mxGeometry>
        </mxCell>
        <mxCell id="qCPhsPHX_Ze51kBiNaoT-110" value="IMG BTN&lt;div&gt;Logo&lt;/div&gt;" style="rounded=1;whiteSpace=wrap;html=1;" vertex="1" parent="1">
          <mxGeometry x="40" y="40" width="180" height="100" as="geometry" />
        </mxCell>
        <mxCell id="qCPhsPHX_Ze51kBiNaoT-111" value="&lt;font style=&quot;font-size: 24px;&quot;&gt;All text is Font&amp;nbsp;&lt;/font&gt;&lt;div&gt;&lt;font style=&quot;&quot;&gt;&lt;font style=&quot;font-size: 24px;&quot;&gt;Montserrat&lt;/font&gt;&lt;br&gt;&lt;/font&gt;&lt;/div&gt;" style="text;strokeColor=none;align=center;fillColor=none;html=1;verticalAlign=middle;whiteSpace=wrap;rounded=0;" vertex="1" parent="1">
          <mxGeometry x="1080" y="310" width="240" height="70" as="geometry" />
        </mxCell>
        <mxCell id="qCPhsPHX_Ze51kBiNaoT-112" value="&lt;font style=&quot;font-size: 24px;&quot;&gt;&amp;nbsp;Background color&amp;nbsp;#CCE8EE (extremely Light blue)&lt;/font&gt;" style="text;strokeColor=none;align=center;fillColor=none;html=1;verticalAlign=middle;whiteSpace=wrap;rounded=0;" vertex="1" parent="1">
          <mxGeometry x="1070" y="670" width="240" height="30" as="geometry" />
        </mxCell>
        <mxCell id="qCPhsPHX_Ze51kBiNaoT-113" value="&lt;font style=&quot;font-size: 24px;&quot;&gt;Goes to home page through logo click&amp;nbsp;&lt;/font&gt;" style="text;html=1;align=center;verticalAlign=middle;whiteSpace=wrap;rounded=0;" vertex="1" parent="1">
          <mxGeometry x="960" y="240" width="220" height="30" as="geometry" />
        </mxCell>
        <mxCell id="qCPhsPHX_Ze51kBiNaoT-114" value="&lt;font style=&quot;font-size: 24px;&quot;&gt;white filled with black outline and text&lt;/font&gt;" style="text;strokeColor=none;align=center;fillColor=none;html=1;verticalAlign=middle;whiteSpace=wrap;rounded=0;" vertex="1" parent="1">
          <mxGeometry x="1080" y="414" width="240" height="30" as="geometry" />
        </mxCell>
        <mxCell id="qCPhsPHX_Ze51kBiNaoT-115" value="&lt;font style=&quot;font-size: 24px;&quot;&gt;Logs out of users account and takes user to home page&lt;/font&gt;" style="text;strokeColor=none;align=center;fillColor=none;html=1;verticalAlign=middle;whiteSpace=wrap;rounded=0;" vertex="1" parent="1">
          <mxGeometry x="990" y="950" width="221" height="110" as="geometry" />
        </mxCell>
        <mxCell id="qCPhsPHX_Ze51kBiNaoT-116" value="Will have info about the trips that the supplier has registered" style="text;html=1;align=center;verticalAlign=middle;whiteSpace=wrap;rounded=0;fontSize=24;" vertex="1" parent="1">
          <mxGeometry x="1070" y="785" width="210" height="100" as="geometry" />
        </mxCell>
        <mxCell id="qCPhsPHX_Ze51kBiNaoT-117" value="Will have info about the user such as, email" style="text;html=1;align=center;verticalAlign=middle;whiteSpace=wrap;rounded=0;fontSize=24;" vertex="1" parent="1">
          <mxGeometry x="1090" y="480" width="210" height="100" as="geometry" />
        </mxCell>
        <mxCell id="qCPhsPHX_Ze51kBiNaoT-119" value="My Deals" style="rounded=1;whiteSpace=wrap;html=1;fontSize=24;" vertex="1" parent="1">
          <mxGeometry x="48" y="660" width="770" height="270" as="geometry" />
        </mxCell>
        <mxCell id="qCPhsPHX_Ze51kBiNaoT-120" value="&lt;font style=&quot;font-size: 24px;&quot;&gt;Upload New Activity btn&lt;/font&gt;" style="rounded=1;whiteSpace=wrap;html=1;" vertex="1" parent="1">
          <mxGeometry x="53" y="570" width="257" height="60" as="geometry" />
        </mxCell>
      </root>
    </mxGraphModel>
  </diagram>
</mxfile>
